<svg width="16" height="16" viewBox="0 0 16 16" xmlns="http://www.w3.org/2000/svg"><g fill="#000" fill-rule="nonzero"><path d="M6.05 11l.36-2.27h-.38c-.81 1.4-1.16 1.84-1.87 1.84H3.8c-.58 0-.83-.14-.83-.68V5.05c0-.54.08-.61.77-.69v-.38H.51v.38c.68.08.76.15.76.69v4.88c0 .54-.08.61-.76.69V11h5.54zM15.76 11v-.38c-.48-.04-.66-.22-1.01-.7l-2.12-3.11 1.93-2.04c.27-.29.44-.38.87-.41v-.38h-2.31v.38c.57.03.72.11.72.27 0 .15-.11.29-.26.45l-2.39 2.49 1.57 2.35c.27.42.58.82.89 1.08h2.11z"/><path d="M11.85 11v-.38c-.69-.08-.77-.15-.77-.69V5.05c0-.54.08-.61.77-.69v-.38H8.62v.38c.68.08.76.15.76.69v4.88c0 .54-.08.61-.76.69V11h3.23z"/></g></svg>
